# xmcd
#
# Track frame offsets:
#	300
#	23845
#	40319
#	58650
#	78214
#	99845
#	117607
#	139065
#	162042
#	178972
#	200281
#	221173
#	241748
#	258321
#
# Disc length: 3700 seconds
#
# Revision: 0
# Processed by: cddbd v1.5.1PL0 Copyright (c) Steve Scherf et al.
# Submitted via: audiograbber 1.83.01
#
DISCID=bf0e700e
DTITLE=Arissaman Pongruengrong - Arissaman - 2 Leela  Vol.1 (String hits)
DYEAR=2004
DGENRE=Thai
TTITLE0=Jai mai darn por
TTITLE1=Yorm yok tong
TTITLE2=Ter lum-eieng 
TTITLE3=Jai for
TTITLE4=Tum ni jai
TTITLE5=Ka ra ka sung
TTITLE6=Tud fai
TTITLE7=Fun mee chee vid 
TTITLE8=Mai jiem
TTITLE9=Fah luem 
TTITLE10=Jeb kao kra dook dum
TTITLE11=Mod lann
TTITLE12=Pen nueng
TTITLE13=Kor kong sai 
EXTD=
EXTT0=
EXTT1=
EXTT2=
EXTT3=
EXTT4=
EXTT5=
EXTT6=
EXTT7=
EXTT8=
EXTT9=
EXTT10=
EXTT11=
EXTT12=
EXTT13=
PLAYORDER=
